<?xml version="1.0" standalone="no"?><!DOCTYPE svg PUBLIC "-//W3C//DTD SVG 1.1//EN" "http://www.w3.org/Graphics/SVG/1.1/DTD/svg11.dtd"><svg class="icon" width="200px" height="200.00px" viewBox="0 0 1024 1024" version="1.1" xmlns="http://www.w3.org/2000/svg"><path fill="#333333" d="M511.190053 128.254036c51.773154 0 101.963253 10.17371 149.184741 30.130228 45.644573 19.268856 86.645382 46.927799 121.816416 82.20321 35.269271 35.171034 62.935378 76.171843 82.19707 121.81744 19.957541 47.221488 30.136368 97.40954 30.136368 149.176554 0 51.77213-10.178827 101.96223-30.136368 149.183717-19.261693 45.644573-46.927799 86.645382-82.19707 121.815393-35.171034 35.270295-76.171843 62.939471-121.816416 82.198094-47.221488 19.958564-97.411587 30.137391-149.184741 30.137391-51.765991 0-101.955066-10.178827-149.176554-30.137391-45.644573-19.258623-86.645382-46.927799-121.816416-82.198094-35.274388-35.170011-62.934355-76.17082-82.20321-121.815393-19.956517-47.221488-30.130228-97.411587-30.130228-149.183717 0-51.767014 10.17371-101.955066 30.130228-149.176554 19.267832-45.645596 46.927799-86.646406 82.20321-121.81744 35.171034-35.274388 76.172867-62.934355 121.816416-82.20321C409.234987 138.427746 459.423039 128.254036 511.190053 128.254036M511.190053 64.249303c-247.028163 0-447.331141 200.302979-447.331141 447.332165 0 247.035326 200.301955 447.339328 447.331141 447.339328 247.036349 0 447.338305-200.304002 447.338305-447.339328C958.528358 264.552282 758.226402 64.249303 511.190053 64.249303L511.190053 64.249303 511.190053 64.249303zM545.020556 480.4484 545.020556 254.728542l-63.956637 0 0 225.719858L256.00307 480.4484l0 64.12753 225.061872 0 0 221.837434 63.923892 0L544.988834 544.57593l222.539422 0 0-64.11218L545.020556 480.4484zM767.528256 480.4484" /></svg>