<?xml version="1.0" standalone="no"?><!DOCTYPE svg PUBLIC "-//W3C//DTD SVG 1.1//EN" "http://www.w3.org/Graphics/SVG/1.1/DTD/svg11.dtd"><svg class="icon" width="200px" height="200.00px" viewBox="0 0 1024 1024" version="1.1" xmlns="http://www.w3.org/2000/svg"><path fill="#333333" d="M958.123129 279.950993c0 117.181863-86.389556 181.768857-198.833511 192.56576-38.0762 87.679945-90.908476 154.688081-152.133909 189.308577l-22.769586 182.073802 4.860704 0c47.041386 0 86.256526 33.404808 95.275947 77.785597l21.403472 0c10.729365 0 19.445888 8.697079 19.445888 19.445888 0 10.749832-8.716522 19.446911-19.445888 19.446911L316.997236 960.577528c-10.730389 0-19.446911-8.697079-19.446911-19.446911 0-10.748808 8.717546-19.445888 19.446911-19.445888l21.402449 0c9.001001-44.38079 48.236608-77.785597 95.275947-77.785597l4.861728 0-22.769586-182.073802c-61.207014-34.610262-114.039289-101.609189-152.11549-189.279924C150.885987 461.86209 64.193533 397.275095 64.193533 279.950993c0-128.880299-12.201903-116.678396 116.678396-116.678396l19.902282 0c-0.13303-6.494924-0.455371-12.894681-0.455371-19.445888 0-17.09126 0.740874-33.841759 1.727341-50.477648-1.073448-2.410909-1.727341-5.052063-1.727341-7.862062 0-3.560082 1.215688-6.703679 2.877537-9.572006 0.246617-3.285836 0.388856-6.608511 0.654916-9.874905l15.914458 0 23.168676 0 537.057699 0 23.167652 0 15.914458 0c0.26606 3.266393 0.400113 6.589069 0.64673 9.874905 1.671059 2.868327 2.885723 6.010901 2.885723 9.572006 0 2.809999-0.664126 5.450129-1.728364 7.862062 0.988514 16.635889 1.728364 33.386388 1.728364 50.477648 0 6.551206-0.322341 12.951987-0.454348 19.445888l19.426445 0C970.313775 163.271574 958.123129 151.070694 958.123129 279.950993zM433.675632 882.790908c-25.351388 0-46.735417 16.295128-54.768371 38.892799l265.109983 0c-8.032954-22.597671-29.416983-38.892799-54.769394-38.892799L433.675632 882.790908zM550.354028 688.325891l-77.785597 0 12.970406 155.572218 51.844785 0L550.354028 688.325891zM181.517635 202.316845c-11.376095 0-21.659299-0.094144-30.955013-0.170892l-20.490683-0.13303c-11.631922 0-20.272719 0.284479-25.837458 0.836041-1.006933 10.064216-0.845251 28.428469-0.683569 46.337351 0.085958 9.286504 0.180102 19.560498 0.180102 30.91715 0 89.626273 60.998259 138.005121 143.627165 151.507646-24.232914-67.834968-39.937594-145.773038-45.046962-229.294266L181.517635 202.316845zM782.705933 104.932888 240.218572 104.932888c-0.626263 12.837376-1.006933 25.78834-1.006933 38.892799 0 274.063913 124.673487 505.607406 272.250614 505.607406s272.250614-231.543494 272.250614-505.607406C783.711843 130.721227 783.332197 117.770264 782.705933 104.932888zM918.128229 202.848964c-5.564739-0.551562-14.186094-0.836041-25.808806-0.836041l-20.47124 0.13303c-9.286504 0.076748-19.561521 0.170892-30.918173 0.170892l-20.319791 0c-5.127787 83.492576-20.813025 161.412227-45.025473 229.227752 82.322937-13.58746 143.057183-61.966307 143.057183-151.441131 0-11.356652 0.074701-21.630646 0.169869-30.91715C918.983713 231.277434 919.134139 212.913181 918.128229 202.848964z" /></svg>