<?xml version="1.0" standalone="no"?><!DOCTYPE svg PUBLIC "-//W3C//DTD SVG 1.1//EN" "http://www.w3.org/Graphics/SVG/1.1/DTD/svg11.dtd"><svg class="icon" width="200px" height="200.00px" viewBox="0 0 1024 1024" version="1.1" xmlns="http://www.w3.org/2000/svg"><path fill="#333333" d="M729.114366 788.225426c-3.944496 0-7.966837-1.209013-11.417511-3.717046-8.686893-6.333331-10.58677-18.474547-4.285063-27.160223l178.205362-244.781356L713.408143 267.713682c-6.298058-8.686893-4.39818-20.826892 4.322769-27.121301 8.613914-6.298058 20.78797-4.400613 27.082379 4.285063l186.478709 256.275494c4.972279 6.788231 4.972279 16.004219 0 22.832589L744.813291 780.223317C741.023266 785.45467 735.103481 788.225426 729.114366 788.225426L729.114366 788.225426 729.114366 788.225426zM729.114366 788.225426M729.102203 795.418689c-5.64125 0-11.048968-1.773381-15.617432-5.127967-11.818893-8.626077-14.455855-25.271292-5.877214-37.158299l175.158503-240.568055L707.633099 271.924551c-4.19384-5.782342-5.877214-12.819917-4.758208-19.836815 1.123871-6.99622 4.895651-13.148321 10.6561-17.29959 11.396833-8.300106 28.833867-5.546378 37.08532 5.897892l186.464113 256.232924c6.806476 9.349782 6.833235 21.91549 0 31.285949L750.595633 784.413508C745.605109 791.31364 737.564078 795.418689 729.102203 795.418689L729.102203 795.418689zM729.102203 244.043056c-2.585877 0-5.059853 0.817361-7.155557 2.331668-2.679533 1.936367-4.405478 4.758208-4.921194 7.971702-0.53396 3.240252 0.257858 6.484154 2.194225 9.164903l181.263167 249.05304L719.192918 761.52132c-3.935982 5.503807-2.726969 13.195757 2.728185 17.205934 5.292169 3.824082 13.195757 2.516547 17.109846-2.702643L925.521821 519.766145c3.123486-4.310606 3.123486-10.092948 0-14.403554L739.030949 249.102909C736.724823 245.931986 733.016291 244.043056 729.102203 244.043056L729.102203 244.043056zM729.102203 244.043056M915.588209 531.987637 433.616493 531.987637c-10.699887 0-19.41962-8.682027-19.41962-19.41962 0-10.729079 8.720949-19.41962 19.41962-19.41962l481.972932 0c10.776515 0 19.424485 8.689325 19.424485 19.41962C935.009046 523.30561 926.364724 531.987637 915.588209 531.987637L915.588209 531.987637 915.588209 531.987637zM915.588209 531.987637M915.588209 539.137113 433.611628 539.137113c-14.662628 0-26.570312-11.912549-26.570312-26.573961 0-14.662628 11.907684-26.575177 26.570312-26.575177l481.976581 0c14.661412 0 26.575177 11.912549 26.575177 26.575177C942.163387 527.224564 930.254486 539.137113 915.588209 539.137113L915.588209 539.137113zM433.611628 500.302738c-6.75904 0-12.26163 5.502591-12.26163 12.26163 0 6.757823 5.502591 12.260414 12.26163 12.260414l481.976581 0c6.762689 0 12.26163-5.502591 12.26163-12.260414 0-6.763905-5.498942-12.26163-12.26163-12.26163L433.611628 500.302738 433.611628 500.302738zM433.611628 500.302738M108.379819 945.534566c-10.695022 0-19.41962-8.686893-19.41962-19.41962L88.960199 98.94811c0-10.733944 8.724598-19.41962 19.41962-19.41962 10.772866 0 19.41962 8.686893 19.41962 19.41962l0 827.161971C127.800655 936.847674 119.152685 945.534566 108.379819 945.534566L108.379819 945.534566 108.379819 945.534566zM108.379819 945.534566M108.379819 952.719315c-14.662628 0-26.575177-11.934443-26.575177-26.622613L81.804641 98.956624c0-14.662628 11.912549-26.575177 26.575177-26.575177 14.661412 0 26.575177 11.912549 26.575177 26.575177l0 827.140078C134.954996 940.784872 123.041231 952.719315 108.379819 952.719315L108.379819 952.719315zM108.379819 86.69621c-6.75904 0-12.26163 5.502591-12.26163 12.26163l0 827.140078c0 6.763905 5.502591 12.26163 12.26163 12.26163s12.26163-5.502591 12.26163-12.26163L120.641449 98.956624C120.641449 92.197584 115.138858 86.69621 108.379819 86.69621L108.379819 86.69621zM108.379819 86.69621M628.211645 945.534566 108.379819 945.534566c-10.695022 0-19.41962-8.686893-19.41962-19.41962s8.724598-19.424485 19.41962-19.424485l519.831826 0c10.768001 0 19.420836 8.690542 19.420836 19.424485S638.983294 945.534566 628.211645 945.534566L628.211645 945.534566 628.211645 945.534566zM628.211645 945.534566M628.211645 952.719315 108.379819 952.719315c-14.662628 0-26.575177-11.934443-26.575177-26.622613 0-14.635869 11.912549-26.575177 26.575177-26.575177l519.831826 0c14.662628 0 26.575177 11.938092 26.575177 26.575177C654.785606 940.784872 642.877922 952.719315 628.211645 952.719315L628.211645 952.719315zM108.379819 913.882507c-6.75904 0-12.26163 5.455154-12.26163 12.214194 0 6.763905 5.502591 12.26163 12.26163 12.26163l519.831826 0c6.763905 0 12.26163-5.497725 12.26163-12.26163 0-6.75904-5.502591-12.214194-12.26163-12.214194L108.379819 913.882507 108.379819 913.882507zM108.379819 913.882507M628.211645 118.372595 108.379819 118.372595c-10.695022 0-19.41962-8.686893-19.41962-19.424485 0-10.733944 8.724598-19.41962 19.41962-19.41962l519.831826 0c10.768001 0 19.420836 8.686893 19.420836 19.41962C647.631265 109.686919 638.983294 118.372595 628.211645 118.372595L628.211645 118.372595 628.211645 118.372595zM628.211645 118.372595M628.211645 125.531801 108.379819 125.531801c-14.662628 0-26.575177-11.913765-26.575177-26.575177 0-14.662628 11.912549-26.575177 26.575177-26.575177l519.831826 0c14.662628 0 26.575177 11.912549 26.575177 26.575177C654.785606 113.618036 642.877922 125.531801 628.211645 125.531801L628.211645 125.531801zM108.379819 86.69621c-6.75904 0-12.26163 5.502591-12.26163 12.26163 0 6.757823 5.502591 12.260414 12.26163 12.260414l519.831826 0c6.763905 0 12.26163-5.502591 12.26163-12.260414 0-6.75904-5.502591-12.26163-12.26163-12.26163L108.379819 86.69621 108.379819 86.69621zM108.379819 86.69621" /></svg>