<?xml version="1.0" standalone="no"?><!DOCTYPE svg PUBLIC "-//W3C//DTD SVG 1.1//EN" "http://www.w3.org/Graphics/SVG/1.1/DTD/svg11.dtd"><svg class="icon" width="200px" height="196.92px" viewBox="0 0 1040 1024" version="1.1" xmlns="http://www.w3.org/2000/svg"><path fill="#333333" d="M1037.132088 118.311593l2.046612 0 0 2.046612-2.046612 0 0-2.046612Z"  /><path fill="#333333" d="M743.943606 99.227955c9.095145 0.988514 18.226107 1.729387 27.28032 3.007497 58.055231 8.192589 107.546412 32.328289 146.738016 76.986395 31.322379 35.69292 54.815443 75.467809 67.232241 121.353882 16.981766 62.750159 10.914584 122.597199-23.768333 178.645726-27.980261 45.215808-59.163471 88.174202-91.423199 130.36614-67.36527 88.109734-138.01433 173.439144-215.957517 252.497735-26.602891 26.982538-54.003961 53.148477-85.258803 74.847685-6.17156 4.285606-12.712533 8.112772-19.35686 11.629875-17.178241 9.095145-34.503838 8.967232-51.782364 0.061398-18.053168-9.305947-33.924647-21.723767-49.285496-34.81083-37.770232-32.177863-72.143087-67.816548-105.424074-104.511285-80.818677-89.104387-156.25681-182.546569-225.189785-281.167704-16.420995-23.493064-32.82357-47.093575-45.151339-73.104995-18.205641-38.415938-23.220864-78.895885-17.513886-120.80539 7.772011-57.07081 32.782637-106.161878 69.440535-149.938917 38.944987-46.509267 88.918145-72.764234 148.432611-81.736583 7.762801-1.170662 15.642259-1.563612 23.463388-2.364861 2.258437-0.231267 4.498454-0.632403 6.747681-0.955768 6.886851 0 13.773701 0 20.660552 0 8.272407 0.997724 16.561188 1.873674 24.814152 3.012613 44.490284 6.141884 85.371366 21.129226 120.721479 49.550533 13.666254 10.987239 27.107381 22.26612 40.996716 32.964786 9.731642 7.497765 16.58063 7.402597 26.39823 0.010233 9.157567-6.897084 18.10024-14.121626 26.733874-21.664416 37.517475-32.782637 80.684624-53.209876 130.126686-60.07626 9.872858-1.37123 19.773346-2.536776 29.661553-3.797489C730.170928 99.227955 737.056756 99.227955 743.943606 99.227955zM319.099618 151.033855c-12.192693 1.39579-24.481577 2.225691-36.559661 4.287653-49.598628 8.468882-90.51348 32.054043-121.104195 72.211649-35.247782 46.272883-50.758034 98.961896-47.975664 156.887167 1.400906 29.166273 9.581216 56.428174 26.732851 80.521918 10.833743 15.219633 21.355377 30.680766 32.68747 45.521776 68.500117 89.710184 141.595902 175.600367 217.043245 259.498172 35.737946 39.74112 71.411423 79.630618 112.008027 114.604154 19.219737 16.558118 24.133653 16.622586 42.435485 0.574075 19.445888-17.052374 38.028105-35.202757 55.923684-53.893444 71.482031-74.650187 138.719388-153.060001 204.330712-232.871745 33.731242-41.032532 67.026556-82.418105 97.390098-126.058021 9.943466-14.290471 18.99461-29.051663 24.077372-45.931099 11.234879-37.306674 10.146081-74.748425 0.913812-112.136963-10.866489-44.00012-31.825846-82.3301-65.642023-113.039519-31.197536-28.330232-68.50728-42.906206-109.87955-47.930639-40.343847-4.89959-78.272691 2.229784-113.361861 23.220864-21.792329 13.035898-39.857776 30.328749-56.488549 49.244564-6.224772 7.079232-13.837146 11.870352-22.445198 15.442714-14.495132 6.014994-29.67895 6.545066-44.961004 5.635347-20.205181-1.205455-37.928844-7.838525-51.461045-23.916712-6.315846-7.503904-13.351076-14.468526-20.542872-21.158902C407.575696 169.518858 366.954533 151.805428 319.099618 151.033855z"  /><path fill="#333333" d="M328.311421 232.123708c-14.153348 1.476631-28.333302 2.737344-42.453904 4.483104-18.383696 2.273786-33.072233 11.443633-45.667086 24.744567-17.638729 18.629289-30.871101 40.22105-43.172265 62.492286-1.583055 2.866281-3.062755 5.788843-4.64581 8.655124-3.195785 5.782703-12.195763 9.135054-17.810644 6.667863-5.53711-2.431376-7.707542-9.491165-4.984524-16.563234 10.215666-26.532283 24.01802-50.880831 43.441395-71.873957 22.329565-24.133653 50.476625-36.852326 82.370009-42.163285 18.729573-3.119037 37.515429-3.047406 56.266491 0.064468 7.80578 1.296529 12.988826 8.946766 11.320836 16.669658-1.193175 5.52176-5.367241 8.774851-11.487635 8.581446-7.695263-0.245593-15.383362-0.724501-23.073508-1.103124C328.379982 232.559637 328.346213 232.341672 328.311421 232.123708z"  /><path fill="#333333" d="M421.609317 275.090289c-2.668783-1.411139-5.743818-2.368954-7.931646-4.320399-6.353708-5.66707-12.437264-11.646248-18.464537-17.665335-4.92108-4.91494-5.085832-12.281721-0.644683-16.752546 4.51585-4.545526 11.796674-4.591575 16.827247 0.116657 6.340405 5.933129 12.613272 11.943007 18.756179 18.078751 3.552919 3.548826 4.602831 7.970532 2.611477 12.666484C430.79963 271.843338 427.151543 274.343275 421.609317 275.090289z"  /></svg>