<?xml version="1.0" standalone="no"?><!DOCTYPE svg PUBLIC "-//W3C//DTD SVG 1.1//EN" "http://www.w3.org/Graphics/SVG/1.1/DTD/svg11.dtd"><svg class="icon" width="200px" height="200.00px" viewBox="0 0 1024 1024" version="1.1" xmlns="http://www.w3.org/2000/svg"><path fill="#333333" d="M844.8 640.644h-102.4c-15.36 0-25.6 10.452-25.6 26.132s10.24 26.128 25.6 26.128h102.4c15.36 0 25.6-10.452 25.6-26.128s-10.24-26.132-25.6-26.132z m-366.08-112.356a157.2 157.2 0 0 0 58.88-122.8c0-86.224-69.12-156.772-153.6-156.772s-153.6 70.548-153.6 156.772a157.2 157.2 0 0 0 58.88 122.8c-79.36 31.356-138.24 104.52-156.16 190.744h53.76c23.04-88.836 102.4-156.772 197.12-156.772s174.08 67.936 197.12 156.772h53.76c-17.92-86.224-76.8-159.388-156.16-190.744zM384 510c-56.32 0-102.4-47.032-102.4-104.52S327.68 300.964 384 300.964 486.4 348 486.4 405.48 440.32 510 384 510zM896 64H128C56.32 64 0 121.484 0 194.648v630.704C0 898.516 56.32 956 128 956h768c71.68 0 128-57.484 128-130.648V194.648C1024 121.484 967.68 64 896 64z m76.8 761.352c0 44.42-33.28 78.4-76.8 78.4H128c-43.52 0-76.8-33.972-76.8-78.4V194.648c0-44.424 33.28-78.4 76.8-78.4h768c43.52 0 76.8 33.964 76.8 78.4v630.704z m-128-341.48h-153.6c-15.36 0-25.6 10.452-25.6 26.128s10.24 26.128 25.6 26.128h153.6c15.36 0 25.6-10.448 25.6-26.128s-10.24-26.128-25.6-26.128z m0-156.776H640c-15.36 0-25.6 10.452-25.6 26.128s10.24 26.128 25.6 26.128h204.8c15.36 0 25.6-10.452 25.6-26.128s-10.24-26.128-25.6-26.128z" /></svg>