<?xml version="1.0" standalone="no"?><!DOCTYPE svg PUBLIC "-//W3C//DTD SVG 1.1//EN" "http://www.w3.org/Graphics/SVG/1.1/DTD/svg11.dtd"><svg class="icon" width="200px" height="200.00px" viewBox="0 0 1024 1024" version="1.1" xmlns="http://www.w3.org/2000/svg"><path fill="#333333" d="M83.641467 491.476571l811.705919 0L577.432757 165.524894c-7.341199-7.534604-7.223518-19.515473 0.038886-26.973328 7.321756-7.515161 19.127639-7.455809 26.450419 0.059352l347.332636 356.128977-0.077771 0.155543c5.068436 3.418866 8.602935 9.011234 8.602935 15.692401 0 4.756327-1.864464 8.950859-4.641717 12.291954l0.155543 0.233314-0.971118 0.99056-0.058328 0.057305L603.883175 883.427404c-7.184633 7.379061-19.088754 7.494695-26.39209 0.037862-7.318686-7.53665-7.300266-19.574824-0.037862-26.991748l318.670853-326.778508L83.641467 529.695011c-10.390651 0-18.700921-8.565073-18.700921-19.10922C64.940546 499.961826 73.310168 491.476571 83.641467 491.476571L83.641467 491.476571zM83.641467 491.476571" /></svg>