<?xml version="1.0" standalone="no"?><!DOCTYPE svg PUBLIC "-//W3C//DTD SVG 1.1//EN" "http://www.w3.org/Graphics/SVG/1.1/DTD/svg11.dtd"><svg class="icon" width="200px" height="200.00px" viewBox="0 0 1024 1024" version="1.1" xmlns="http://www.w3.org/2000/svg"><path fill="#333333" d="M726.811 957.773c-55.208 0-113.193-25.446-149.055-49.263-19.315-12.837-37.341-27.449-52.431-40.05-20.116-16.797-40.869-35.297-63.445-56.56-53.476-50.374-105.252-105.063-153.896-162.557-47.688-56.355-83.507-104.522-112.722-151.584-45.321-73.009-72.354-140.725-80.347-201.263l-0.423-2.952c-3.102-20.874-3.312-37.18-0.687-54.446 4.477-29.457 17.159-57.981 37.694-84.777 4.088-5.333 8.485-10.138 11.861-13.729 5.604-5.961 11.685-11.906 18.074-17.669 17.189-15.516 34.822-28.171 52.4-37.61 42.535-22.838 83.5-25.223 116.737-6.924 13.427 7.397 26.571 21.029 33.212 28.496 15.691 17.644 28.378 38.017 37.708 60.552 1.659 4.013 3.344 7.998 5.026 11.986 15.161 35.946 34.023 80.671 36.879 126.538 0.788 12.646 0.514 29.464-8.67 47.426-9.273 18.14-25.736 33.795-50.328 47.857-9.289 5.31-12.933 8.679-14.312 10.292 0.335 1.065 1.067 2.907 2.67 5.774 13.663 24.45 29.393 49.145 48.089 75.495 24.415 34.416 52.472 69.354 83.391 103.855 7.552 8.431 16.178 16.934 25.642 25.278 12.195 10.757 23.871 19.611 34.705 26.311 9.564 5.913 15.159 8.062 17.74 8.827 3.114-1.452 9.141-5.394 15.25-10.875 3.35-3.009 6.623-6.109 9.901-9.214l1.598-1.516c13.529-12.86 32.065-30.477 59.055-30.477 11.185 0 22.56 3.136 33.804 9.323l2.253 1.357 145.304 95.586c11.048 7.757 22.437 20.134 29.839 32.457 17.726 29.516 16.847 63.307-2.417 92.695-28.952 44.165-75.77 100.279-134.402 116.803-10.692 3.024-22.705 4.558-35.697 4.558zM302.254 112.772c-13.952 0-29.552 4.579-46.373 13.611-14.271 7.664-28.815 18.143-43.225 31.15-5.447 4.912-10.604 9.951-15.334 14.986-2.631 2.797-6.007 6.478-8.829 10.156-15.698 20.487-25.324 41.827-28.606 63.429-1.912 12.575-1.702 24.356 0.722 40.662l0.125 0.863c0.139 0.935 0.275 1.875 0.398 2.818 7.115 53.884 31.924 115.378 73.731 182.727 27.982 45.078 62.524 91.487 108.703 146.062 47.515 56.155 98.073 109.561 150.273 158.733 21.889 20.617 41.964 38.516 61.365 54.712 14.121 11.795 30.909 25.415 48.348 37.004 37.933 25.192 86.318 41.474 123.258 41.474 8.704 0 16.451-0.942 23.029-2.804 47.142-13.288 87.952-66.784 108.081-97.493 9.468-14.448 9.956-28.97 1.443-43.145-4.12-6.855-11.048-14.435-16.857-18.436L699.014 654.92c-4.033-2.19-7.666-3.309-10.893-3.309-8.371 0-17.394 8.572-26.944 17.649l-1.652 1.57c-3.587 3.396-7.161 6.778-10.825 10.065-12.459 11.18-31.601 24.618-48.813 23.025-10.925-0.974-23.972-6.218-39.831-16.023-13.247-8.198-26.662-18.336-41.015-31-10.825-9.541-20.76-19.342-29.525-29.129-32.09-35.802-61.26-72.138-86.695-107.986-19.67-27.727-36.274-53.806-50.761-79.731-2.847-5.094-11.51-20.596-8.06-37.808 4.04-20.184 22.035-32.762 37.259-41.463 16.251-9.293 27.006-18.919 31.958-28.61 3.273-6.4 4.297-12.935 3.651-23.307-2.365-37.958-18.8-76.929-33.301-111.313a1637.4 1637.4 0 0 1-5.155-12.293c-7.224-17.448-17.414-33.843-29.466-47.392-7.568-8.51-15.759-15.83-20.867-18.643-7.769-4.279-16.459-6.45-25.825-6.45z"  /></svg>