<?xml version="1.0" standalone="no"?><!DOCTYPE svg PUBLIC "-//W3C//DTD SVG 1.1//EN" "http://www.w3.org/Graphics/SVG/1.1/DTD/svg11.dtd"><svg class="icon" width="200px" height="200.00px" viewBox="0 0 1024 1024" version="1.1" xmlns="http://www.w3.org/2000/svg"><path fill="#333333" d="M512.018 678.001c-91.529 0-166.002-74.474-166.002-165.989 0-91.527 74.474-166.001 166.002-166.001 91.516 0 165.989 74.474 165.989 166.002 0 91.515-74.474 165.988-165.99 165.988zM512.018 394.521c-64.786 0-117.49 52.705-117.49 117.489 0 64.797 52.705 117.477 117.49 117.477 64.773 0 117.475-52.682 117.475-117.477 0.001-64.784-52.702-117.489-117.475-117.489z"  /><path fill="#333333" d="M512.018 803.070c-255.801 0-485.131-223.893-485.131-291.058 0-67.154 229.33-291.070 485.131-291.070 267.181 0 485.105 234.006 485.105 291.070 0.001 57.027-217.923 291.058-485.105 291.058zM512.018 269.452c-247.344 0-431.491 210.723-436.668 243.364 5.177 31.020 189.323 241.744 436.668 241.744 239.326 0 425.982-206.177 436.405-242.548-10.423-36.407-197.079-242.558-436.406-242.558z"  /></svg>