<?xml version="1.0" standalone="no"?><!DOCTYPE svg PUBLIC "-//W3C//DTD SVG 1.1//EN" "http://www.w3.org/Graphics/SVG/1.1/DTD/svg11.dtd"><svg class="icon" width="200px" height="200.00px" viewBox="0 0 1024 1024" version="1.1" xmlns="http://www.w3.org/2000/svg"><path fill="#333333" d="M814.023036 626.154525l79.116998 54.251656c13.562914 9.041943 13.562914 31.646799 0 40.688742L558.588157 949.403974c-9.041943 6.781457-20.344371 6.781457-27.125828 0L196.910453 721.094923c-13.562914-9.041943-13.562914-31.646799 0-40.688742l79.116998-54.251656c9.041943-6.781457 20.344371-6.781457 27.125828 0l226.048565 153.713025c9.041943 6.781457 20.344371 6.781457 27.125828 0l226.048565-153.713025c11.302428-6.781457 22.604857-6.781457 31.646799 0zM524.680872 51.99117L81.625685 354.896247c-20.344371 13.562914-20.344371 45.209713 0 58.772627l207.96468 142.410596 235.090507 160.494481c11.302428 9.041943 29.386313 9.041943 40.688742 0l235.090508-160.494481 207.96468-142.410596c20.344371-13.562914 20.344371-45.209713 0-58.772627L565.369614 51.99117c-13.562914-6.781457-29.386313-6.781457-40.688742 0zM47.7184 443.055188c-22.604857 0-42.949227 18.083885-42.949227 42.949227s18.083885 42.949227 42.949227 42.949227S90.667627 510.869757 90.667627 486.004415s-20.344371-42.949227-42.949227-42.949227z m2.260486 115.284768H45.457914L0.248201 951.664459c-2.260486 13.562914 11.302428 27.125828 24.865342 27.125828h45.209714c15.8234 0 27.125828-13.562914 24.865342-27.125828l-45.209713-393.324503z"  /></svg>