<?xml version="1.0" standalone="no"?><!DOCTYPE svg PUBLIC "-//W3C//DTD SVG 1.1//EN" "http://www.w3.org/Graphics/SVG/1.1/DTD/svg11.dtd"><svg class="icon" width="200px" height="200.00px" viewBox="0 0 1024 1024" version="1.1" xmlns="http://www.w3.org/2000/svg"><path fill="#333333" d="M849.5 202.625h-168.75v-56.25c0-30.938-25.313-56.25-56.25-56.25h-225.001c-30.938 0-56.25 25.313-56.25 56.25v56.25h-168.75c-61.875 0-112.5 50.625-112.5 112.5v506.25c0 61.875 50.625 112.5 112.5 112.5h675.001c61.875 0 112.5-50.625 112.5-112.5v-506.25c0-61.875-50.625-112.5-112.5-112.5zM399.5 174.5c0-15.469 12.656-28.125 28.125-28.125h168.75c15.469 0 28.125 12.656 28.125 28.125v28.125c-16.875 0-208.125 0-225.001 0v-28.125zM905.75 821.375c0 30.938-25.313 56.25-56.25 56.25h-675.001c-30.938 0-56.25-25.313-56.25-56.25v-309.375h285.469c-2.813 8.438-4.219 18.281-4.219 28.125 0 61.875 50.625 112.5 112.5 112.5 61.875 0 112.5-50.625 112.5-112.5 0-9.844-1.406-19.687-4.219-28.125h285.469v309.375zM455.75 540.125c0-9.844 2.813-19.687 8.438-28.125h97.031c4.219 8.438 8.438 18.281 8.438 28.125 0 30.938-25.313 56.25-56.25 56.25-32.343 0-57.655-25.313-57.655-56.25zM905.75 455.75h-787.5v-140.625c0-30.938 25.313-56.25 56.25-56.25h675.001c30.938 0 56.25 25.313 56.25 56.25v140.625z" /></svg>