<?xml version="1.0" standalone="no"?><!DOCTYPE svg PUBLIC "-//W3C//DTD SVG 1.1//EN" "http://www.w3.org/Graphics/SVG/1.1/DTD/svg11.dtd"><svg class="icon" width="200px" height="200.00px" viewBox="0 0 1024 1024" version="1.1" xmlns="http://www.w3.org/2000/svg"><path fill="#333333" d="M893.456828 709.055005M491.889987 337.939709M568.154951 338.993714M903.152655 262.257006 692.470281 262.257006 692.470281 205.602681c0-53.676503-54.074569-98.888218-124.706233-98.888218l-77.771271 0c-69.910233 0-128.050398 44.310182-128.050398 98.888218l0 56.654324L164.325579 262.257006c-45.379537 0-83.792405 33.629935-83.792405 74.584696l0 63.066361 0 48.607044 0 43.87016c0 7.167237 3.939729 13.756305 10.262738 17.136286 1.62808 0.873903 18.901489 6.28003 28.622898 14.319124l0 318.516334c0 21.065781 17.811668 42.072211 40.046065 42.072211l738.827075 0c22.86066 0 37.725206-21.897729 37.725206-42.072211L936.017156 523.837606c19.442818-8.02886 26.969235-13.423731 28.622898-14.306844 6.312776-3.38919 10.262738-9.977235 10.262738-17.145495L974.902792 448.515107l0-48.607044 0-63.065338C974.902792 294.519804 946.386318 262.257006 903.152655 262.257006zM400.828015 205.603705c0-32.231075 41.86755-60.002582 89.164762-60.002582l77.771271 0c47.515177 0 85.820598 28.864398 85.820598 60.002582l0 56.654324-252.756631 0L400.828015 205.603705 400.828015 205.603705zM897.131521 842.156442c0 1.347694 1.045819 3.38612-0.254803 3.38612L162.426323 845.542562c-0.645706 0-4.121877-1.591241-4.121877-3.186576L158.304446 541.582759c68.049862 28.568662 174.98536 67.99051 281.409205 83.002412l0 18.358113c0 21.446451 20.820188 37.845956 42.266639 37.845956l97.214089 0c21.446451 0 35.504632-16.400528 35.504632-37.845956l0-18.305925c116.656907-15.040555 224.104057-54.509475 282.432511-83.07302L897.131521 842.156442zM478.599286 641.903605l0-97.214089 100.595093 0 0.028653 97.214089L478.599286 641.903605zM936.017156 480.489332c-29.164227 18.98233-174.98536 84.042091-321.318146 104.84693L614.69901 545.729196c0-21.446451-14.059204-39.925315-35.504632-39.925315l-97.214089 0c-21.446451 0-42.266639 18.478863-42.266639 39.925315l0 39.637766c-136.099724-20.73116-281.409205-85.866646-320.29484-104.877629L119.41881 448.515107l0-48.607044 0-63.065338c0-21.379936 24.239054-35.69906 44.906769-35.69906l738.827075 0c21.711488 0 32.864502 14.95562 32.864502 35.69906L936.017156 399.908062l0 48.607044L936.017156 480.489332 936.017156 480.489332z" /></svg>